<svg width="24" height="24" viewBox="0 0 24 24" fill="none" xmlns="http://www.w3.org/2000/svg">
<path d="M2.66067 12.0049C2.66067 17.183 6.83847 21.3802 11.9927 21.3802C12.5902 21.3802 13.1732 21.3216 13.7416 21.2143C14.5625 21.7121 15.5244 22 16.5543 22C19.5613 22 22 19.55 22 16.529C22 15.47 21.6988 14.4841 21.179 13.6447C21.2713 13.1127 21.3248 12.5661 21.3248 12.0098C21.3248 6.83162 17.147 2.63446 11.9927 2.63446C11.4049 2.63446 10.8317 2.69302 10.273 2.79551C9.44717 2.29283 8.48045 2 7.44571 2C4.43867 2 2 4.44998 2 7.47096C2 8.52513 2.29633 9.5061 2.81127 10.3407C2.71411 10.8824 2.66067 11.4388 2.66067 12.0049ZM12.0899 5.34309C15.0969 5.51879 16.8603 6.85115 17.0304 8.09078C17.1129 8.90093 16.5786 9.53538 15.6459 9.53538C14.2856 9.53538 14.1448 7.71498 11.8033 7.71498C10.7442 7.71498 9.85523 8.15422 9.85523 9.11567C9.85523 11.1166 17.3656 9.9551 17.3656 14.3621C17.3656 16.9048 15.3398 18.5691 12.3182 18.5691C9.66092 18.5691 6.98907 17.3587 7.00364 15.2748C7.00364 14.6452 7.47486 14.0693 8.09667 14.0693C9.66092 14.0693 9.64635 16.407 12.1385 16.407C13.8873 16.407 14.4848 15.4505 14.4848 14.7818C14.4848 12.3709 6.93077 13.8497 6.93077 9.31576C6.93077 6.86091 8.93709 5.1674 12.0899 5.35285V5.34309Z" fill="#B6B6B6"/>
</svg>
